# xmcd
#
# Track frame offsets:
#	150
#	20298
#	41496
#	69444
#	93192
#	125490
#	153438
#	171711
#	187734
#
# Disc length: 2776 seconds
# Revision: 0
# Processed by: cddbd v1.5.2PL0 Copyright (c) Steve Scherf et al.
# Submitted via: dBpowerAMP V12.0
#
DISCID=6c0ad609
DTITLE=The Controllers - The Controllers
DYEAR=1984
DGENRE=R&B
TTITLE0=Crushed
TTITLE1=One Girl
TTITLE2=Just For You
TTITLE3=Undercover Lover
TTITLE4=Givin' Up On Love
TTITLE5=I Wanna Be Yours
TTITLE6=Leaving Me
TTITLE7=Nothing Can Stop This Feeling
TTITLE8=My Secret Fantasy
EXTD=
EXTT0=
EXTT1=
EXTT2=
EXTT3=
EXTT4=
EXTT5=
EXTT6=
EXTT7=
EXTT8=
PLAYORDER=
